<svg width="611" height="468" viewBox="0 0 611 468" fill="none" xmlns="http://www.w3.org/2000/svg">
<path d="M315.504 233.722C337.384 331.926 304.486 393.482 252.151 418.272" stroke="#929292" stroke-opacity="0.5" stroke-width="5.50896"/>
<path d="M340.295 211.686C500.055 211.686 556.521 291.566 571.671 330.129" stroke="#929292" stroke-opacity="0.5" stroke-width="5.50896"/>
<path d="M332.052 156.887C376.232 64.8158 456.859 64.8151 499.936 64.8157" stroke="#929292" stroke-opacity="0.5" stroke-width="5.50896"/>
<path d="M21.3027 168.629C129.907 131.713 224.391 155.203 258.057 171.562" stroke="#929292" stroke-opacity="0.5" stroke-width="5.50896"/>
<path fill-rule="evenodd" clip-rule="evenodd" d="M533.186 324.426L500.543 283.075C497.538 279.268 500.249 273.673 505.099 273.673L605.141 273.673C609.991 273.673 612.702 279.268 609.697 283.075L577.05 324.43L609.694 365.78C612.699 369.587 609.988 375.182 605.138 375.182H505.096C500.246 375.182 497.535 369.587 500.54 365.78L533.186 324.426Z" fill="#FF5C00"/>
<circle cx="303.625" cy="196.386" r="58.6708" fill="white" stroke="#FF5C00" stroke-width="8.24437"/>
<rect x="152.99" y="363.183" width="104.67" height="104.67" rx="10.3092" fill="#9747FF"/>
<path d="M51.3685 110.909C53.0741 107.955 57.3382 107.955 59.0438 110.909L109.812 198.842C111.518 201.796 109.386 205.489 105.974 205.489H4.43794C1.0267 205.489 -1.10532 201.796 0.600298 198.842L51.3685 110.909Z" fill="#636363"/>
<path d="M571.069 50.2435C573.146 53.8415 573.146 58.2745 571.069 61.8726L545.418 106.301C543.341 109.9 539.502 112.116 535.347 112.116L484.045 112.116C479.89 112.116 476.051 109.9 473.974 106.301L448.323 61.8726C446.245 58.2745 446.245 53.8415 448.323 50.2435L473.974 5.81457C476.051 2.2165 479.89 -1.81607e-07 484.045 0L535.347 2.24248e-06C539.502 2.42409e-06 543.341 2.2165 545.418 5.81457L571.069 50.2435Z" fill="black"/>
</svg>
