<svg width="388" height="289" viewBox="0 0 388 289" fill="none" xmlns="http://www.w3.org/2000/svg">
<path d="M199.008 147.006C212.277 206.564 192.326 243.896 160.586 258.931" stroke="#929292" stroke-opacity="0.5" stroke-width="3.34104"/>
<path d="M214.043 133.642C310.933 133.642 345.179 182.087 354.367 205.474" stroke="#929292" stroke-opacity="0.5" stroke-width="3.34104"/>
<path d="M209.043 100.407C235.837 44.5684 284.735 44.5679 310.861 44.5683" stroke="#929292" stroke-opacity="0.5" stroke-width="3.34104"/>
<path d="M20.582 107.528C86.4477 85.14 143.75 99.3857 164.167 109.307" stroke="#929292" stroke-opacity="0.5" stroke-width="3.34104"/>
<path d="M341.565 188.668C342.974 186.882 345.682 186.882 347.091 188.668L377.428 227.095C379.25 229.404 377.606 232.798 374.664 232.798H313.992C311.05 232.798 309.406 229.404 311.228 227.095L341.565 188.668Z" fill="#FF5C00"/>
<path d="M347.093 215.365C345.684 217.15 342.976 217.15 341.567 215.365L311.231 176.937C309.408 174.628 311.052 171.235 313.994 171.235L374.666 171.235C377.608 171.235 379.252 174.628 377.43 176.937L347.093 215.365Z" fill="#FF5C00"/>
<circle cx="191.805" cy="124.362" r="34.726" fill="#F0F0F0" stroke="#FF5C00" stroke-width="6.71262"/>
<rect x="100.447" y="225.52" width="63.4798" height="63.4798" rx="6.25227" fill="#FF5C00"/>
<path d="M38.8171 72.5227C39.8515 70.731 42.4376 70.731 43.472 72.5227L74.2616 125.852C75.296 127.643 74.003 129.883 71.9341 129.883H10.3549C8.28611 129.883 6.99309 127.643 8.02751 125.852L38.8171 72.5227Z" fill="#FF5C00"/>
<path d="M354.001 35.7308C355.261 37.913 355.261 40.6015 354.001 42.7836L338.444 69.7286C337.185 71.9107 334.856 73.255 332.337 73.255L301.223 73.255C298.703 73.255 296.375 71.9107 295.115 69.7286L279.559 42.7836C278.299 40.6015 278.299 37.913 279.559 35.7308L295.115 8.78586C296.375 6.60372 298.703 5.25947 301.223 5.25947L332.337 5.25947C334.856 5.25947 337.185 6.60372 338.444 8.78586L354.001 35.7308Z" fill="#FF5C00"/>
</svg>
